<?xml version="1.0" encoding="UTF-8"?>
<svg version="1.1" xmlns="http://www.w3.org/2000/svg" width="32" height="32">
<path d="M0 0 C4.75 0.75 4.75 0.75 7 3 C7.7425 2.46375 8.485 1.9275 9.25 1.375 C10.61125 0.694375 10.61125 0.694375 12 0 C13.84765625 0.7421875 13.84765625 0.7421875 16 2 C16.83917969 2.42796875 17.67835937 2.8559375 18.54296875 3.296875 C25.69727175 7.22804297 25.69727175 7.22804297 27.25 11.1875 C27 14 27 14 25 17 C24.62910732 19.8364861 24.49545768 22.64800911 24.34375 25.50390625 C24 28 24 28 22 30 C19.95288086 30.24291992 19.95288086 30.24291992 17.46484375 30.23046875 C16.57345703 30.22853516 15.68207031 30.22660156 14.76367188 30.22460938 C13.83103516 30.21236328 12.89839844 30.20011719 11.9375 30.1875 C10.53274414 30.1865332 10.53274414 30.1865332 9.09960938 30.18554688 C2.14019224 30.14019224 2.14019224 30.14019224 1 29 C0.92755947 26.98035801 0.91622812 24.95832876 0.9375 22.9375 C0.94652344 21.83277344 0.95554687 20.72804688 0.96484375 19.58984375 C0.97644531 18.73519531 0.98804688 17.88054688 1 17 C0.01 16.67 -0.98 16.34 -2 16 C-4.09637044 13.37953696 -4.10569289 11.21315469 -3.8125 8 C-3.29715822 4.63142449 -2.40536726 2.50994845 0 0 Z " fill="#0E0E0E" transform="translate(4,0)"/>
<path d="M0 0 C0.721875 0.40089844 1.44375 0.80179687 2.1875 1.21484375 C3.02667969 1.6428125 3.86585937 2.07078125 4.73046875 2.51171875 C11.88477175 6.44288672 11.88477175 6.44288672 13.4375 10.40234375 C13.1875 13.21484375 13.1875 13.21484375 11.1875 16.21484375 C10.81660732 19.05132985 10.68295768 21.86285286 10.53125 24.71875 C10.1875 27.21484375 10.1875 27.21484375 8.1875 29.21484375 C6.14038086 29.45776367 6.14038086 29.45776367 3.65234375 29.4453125 C2.76095703 29.44337891 1.86957031 29.44144531 0.95117188 29.43945312 C0.01853516 29.42720703 -0.91410156 29.41496094 -1.875 29.40234375 C-3.27975586 29.40137695 -3.27975586 29.40137695 -4.71289062 29.40039062 C-11.67230776 29.35503599 -11.67230776 29.35503599 -12.8125 28.21484375 C-12.88494053 26.19520176 -12.89627188 24.17317251 -12.875 22.15234375 C-12.86597656 21.04761719 -12.85695313 19.94289063 -12.84765625 18.8046875 C-12.83605469 17.95003906 -12.82445312 17.09539063 -12.8125 16.21484375 C-13.8025 15.88484375 -14.7925 15.55484375 -15.8125 15.21484375 C-15.4825 14.22484375 -15.1525 13.23484375 -14.8125 12.21484375 C-13.4925 12.87484375 -12.1725 13.53484375 -10.8125 14.21484375 C-10.8125 18.50484375 -10.8125 22.79484375 -10.8125 27.21484375 C-7.1825 27.21484375 -3.5525 27.21484375 0.1875 27.21484375 C0.1875 25.23484375 0.1875 23.25484375 0.1875 21.21484375 C1.8375 21.21484375 3.4875 21.21484375 5.1875 21.21484375 C5.1875 23.19484375 5.1875 25.17484375 5.1875 27.21484375 C6.1775 27.21484375 7.1675 27.21484375 8.1875 27.21484375 C8.1875 22.92484375 8.1875 18.63484375 8.1875 14.21484375 C8.8475 14.21484375 9.5075 14.21484375 10.1875 14.21484375 C9.86288191 11.14667925 9.57272664 9.60337706 7.3671875 7.37890625 C2.19665644 3.76415321 2.19665644 3.76415321 -3.875 3.33984375 C-4.844375 3.62859375 -5.81375 3.91734375 -6.8125 4.21484375 C-5.8125 1.21484375 -5.8125 1.21484375 -4 -0.09765625 C-1.8125 -0.78515625 -1.8125 -0.78515625 0 0 Z " fill="#E3E4E3" transform="translate(17.8125,0.78515625)"/>
<path d="M0 0 C0.721875 0.40089844 1.44375 0.80179687 2.1875 1.21484375 C3.02667969 1.6428125 3.86585937 2.07078125 4.73046875 2.51171875 C11.88477175 6.44288672 11.88477175 6.44288672 13.4375 10.40234375 C13.1875 13.21484375 13.1875 13.21484375 11.1875 16.21484375 C10.85436818 19.05278954 10.74641705 21.86437471 10.62890625 24.71875 C10.48324219 25.54246094 10.33757813 26.36617187 10.1875 27.21484375 C9.1975 27.87484375 8.2075 28.53484375 7.1875 29.21484375 C6.5275 28.55484375 5.8675 27.89484375 5.1875 27.21484375 C6.1775 27.21484375 7.1675 27.21484375 8.1875 27.21484375 C8.1875 22.92484375 8.1875 18.63484375 8.1875 14.21484375 C8.8475 14.21484375 9.5075 14.21484375 10.1875 14.21484375 C9.86288191 11.14667925 9.57272664 9.60337706 7.3671875 7.37890625 C2.19665644 3.76415321 2.19665644 3.76415321 -3.875 3.33984375 C-4.844375 3.62859375 -5.81375 3.91734375 -6.8125 4.21484375 C-5.8125 1.21484375 -5.8125 1.21484375 -4 -0.09765625 C-1.8125 -0.78515625 -1.8125 -0.78515625 0 0 Z " fill="#BFC0BF" transform="translate(17.8125,0.78515625)"/>
<path d="M0 0 C1.67542976 0.28604898 3.34385343 0.61781233 5 1 C5.33 1.99 5.66 2.98 6 4 C5.01 4 4.02 4 3 4 C3 3.34 3 2.68 3 2 C2.34 2 1.68 2 1 2 C0.67 3.98 0.34 5.96 0 8 C1.32 8.66 2.64 9.32 4 10 C3.360625 10.103125 2.72125 10.20625 2.0625 10.3125 C1.0415625 10.6528125 1.0415625 10.6528125 0 11 C-0.33 11.99 -0.66 12.98 -1 14 C-1.66 14 -2.32 14 -3 14 C-4.47022475 8.5200714 -3.48569348 5.87578336 -1 1 C-0.67 0.67 -0.34 0.34 0 0 Z " fill="#151515" transform="translate(4,0)"/>
<path d="M0 0 C2.14417858 1.2078217 4.27544125 2.42155853 6.37890625 3.69921875 C7.0853125 4.12203125 7.79171875 4.54484375 8.51953125 4.98046875 C9.050625 5.38265625 9.58171875 5.78484375 10.12890625 6.19921875 C10.12890625 6.85921875 10.12890625 7.51921875 10.12890625 8.19921875 C7.125704 7.73718763 5.80989804 6.95819033 3.31640625 5.07421875 C-0.61973394 2.75884217 -2.52345519 3.1557855 -6.87109375 4.19921875 C-5.87109375 1.19921875 -5.87109375 1.19921875 -4.05859375 -0.11328125 C-1.87109375 -0.80078125 -1.87109375 -0.80078125 0 0 Z " fill="#D5D6D5" transform="translate(17.87109375,0.80078125)"/>
<path d="M0 0 C1.65 0 3.3 0 5 0 C5 2.31 5 4.62 5 7 C5.66 7.33 6.32 7.66 7 8 C4.69 8 2.38 8 0 8 C0 5.36 0 2.72 0 0 Z " fill="#FCFCFC" transform="translate(18,22)"/>
<path d="M0 0 C0.66 0 1.32 0 2 0 C2.66 1.32 3.32 2.64 4 4 C2.68 3.67 1.36 3.34 0 3 C1.25541557 5.51083114 2.50063488 5.87125446 5 7 C4.34 8.32 3.68 9.64 3 11 C1.68 11 0.36 11 -1 11 C-1.66 10.01 -2.32 9.02 -3 8 C-1.35 8 0.3 8 2 8 C0.68 7.34 -0.64 6.68 -2 6 C-1.49396008 3.83125748 -1.00016187 2.00032373 0 0 Z " fill="#CECECE" transform="translate(5,2)"/>
<path d="M0 0 C1.65 0.33 3.3 0.66 5 1 C5.33 1.99 5.66 2.98 6 4 C5.01 4 4.02 4 3 4 C3 3.34 3 2.68 3 2 C2.34 2 1.68 2 1 2 C0.34 3.98 -0.32 5.96 -1 8 C-1.66 6.68 -2.32 5.36 -3 4 C-2.01 2.68 -1.02 1.36 0 0 Z " fill="#090A09" transform="translate(4,0)"/>
<path d="M0 0 C1.65 0 3.3 0 5 0 C5 1.65 5 3.3 5 5 C3.35 5 1.7 5 0 5 C0 3.35 0 1.7 0 0 Z " fill="#FBFBFB" transform="translate(10,13)"/>
<path d="" fill="#000000" transform="translate(0,0)"/>
</svg>
