<?xml version="1.0" encoding="UTF-8"?>
<svg version="1.1" xmlns="http://www.w3.org/2000/svg" width="32" height="32">
<path d="M0 0 C2.640625 1.671875 2.640625 1.671875 5.25 3.75 C6.55710937 4.76320313 6.55710937 4.76320313 7.890625 5.796875 C10.27731647 8.28964165 10.80206142 9.59105777 11 13 C10.67 13.99 10.34 14.98 10 16 C9.34 16 8.68 16 8 16 C8.02320312 16.68707031 8.04640625 17.37414062 8.0703125 18.08203125 C8.09738281 19.43361328 8.09738281 19.43361328 8.125 20.8125 C8.14820312 21.70582031 8.17140625 22.59914063 8.1953125 23.51953125 C8 26 8 26 6 29 C4.06054688 29.37231445 4.06054688 29.37231445 1.71875 29.36328125 C0.87699219 29.36263672 0.03523438 29.36199219 -0.83203125 29.36132812 C-1.71246094 29.34521484 -2.59289062 29.32910156 -3.5 29.3125 C-4.82064453 29.31733398 -4.82064453 29.31733398 -6.16796875 29.32226562 C-12.73302968 29.26697032 -12.73302968 29.26697032 -15 27 C-15.1953125 24.3984375 -15.1953125 24.3984375 -15.125 21.375 C-15.10695313 20.37210938 -15.08890625 19.36921875 -15.0703125 18.3359375 C-15.03550781 17.17964844 -15.03550781 17.17964844 -15 16 C-15.99 16 -16.98 16 -18 16 C-18.8125 13.3125 -18.8125 13.3125 -19 10 C-17.35155358 7.80207143 -16.14329006 6.61959022 -14 5 C-13.28585938 4.44570312 -12.57171875 3.89140625 -11.8359375 3.3203125 C-4.88603071 -1.72359979 -4.88603071 -1.72359979 0 0 Z " fill="#AED1DC" transform="translate(20,2)"/>
<path d="M0 0 C2.640625 1.671875 2.640625 1.671875 5.25 3.75 C6.55710937 4.76320313 6.55710937 4.76320313 7.890625 5.796875 C10.27731647 8.28964165 10.80206142 9.59105777 11 13 C10.67 13.99 10.34 14.98 10 16 C9.34 16 8.68 16 8 16 C8.02320312 16.68707031 8.04640625 17.37414062 8.0703125 18.08203125 C8.09738281 19.43361328 8.09738281 19.43361328 8.125 20.8125 C8.14820312 21.70582031 8.17140625 22.59914063 8.1953125 23.51953125 C8 26 8 26 6 29 C4.06054688 29.37231445 4.06054688 29.37231445 1.71875 29.36328125 C0.87699219 29.36263672 0.03523438 29.36199219 -0.83203125 29.36132812 C-1.71246094 29.34521484 -2.59289062 29.32910156 -3.5 29.3125 C-4.82064453 29.31733398 -4.82064453 29.31733398 -6.16796875 29.32226562 C-12.73302968 29.26697032 -12.73302968 29.26697032 -15 27 C-15.1953125 24.3984375 -15.1953125 24.3984375 -15.125 21.375 C-15.10695313 20.37210938 -15.08890625 19.36921875 -15.0703125 18.3359375 C-15.03550781 17.17964844 -15.03550781 17.17964844 -15 16 C-15.99 16 -16.98 16 -18 16 C-18.8125 13.3125 -18.8125 13.3125 -19 10 C-17.35155358 7.80207143 -16.14329006 6.61959022 -14 5 C-13.28585938 4.44570312 -12.57171875 3.89140625 -11.8359375 3.3203125 C-4.88603071 -1.72359979 -4.88603071 -1.72359979 0 0 Z M-10.625 4.75 C-11.60726563 5.44609375 -12.58953125 6.1421875 -13.6015625 6.859375 C-16.00348283 9.00310845 -16.70323201 9.86273835 -17 13 C-15.68 13.33 -14.36 13.66 -13 14 C-13.01160156 14.85464844 -13.02320313 15.70929687 -13.03515625 16.58984375 C-13.04417969 17.69457031 -13.05320312 18.79929687 -13.0625 19.9375 C-13.07410156 21.03964844 -13.08570313 22.14179688 -13.09765625 23.27734375 C-13.31262571 25.91447634 -13.31262571 25.91447634 -12 27 C-10.31391034 27.07205511 -8.62499341 27.08386068 -6.9375 27.0625 C-6.01839844 27.05347656 -5.09929688 27.04445313 -4.15234375 27.03515625 C-3.44207031 27.02355469 -2.73179688 27.01195313 -2 27 C-2 25.02 -2 23.04 -2 21 C-0.35 21 1.3 21 3 21 C3 22.98 3 24.96 3 27 C3.99 26.67 4.98 26.34 6 26 C6 22.04 6 18.08 6 14 C6.66 14 7.32 14 8 14 C8.40333149 11.68231028 8.40333149 11.68231028 8 9 C5.93443129 6.65146259 5.93443129 6.65146259 3.1875 4.6875 C2.29417969 3.99011719 1.40085937 3.29273438 0.48046875 2.57421875 C-4.25863711 -0.43343426 -6.48521007 1.75711757 -10.625 4.75 Z " fill="#030303" transform="translate(20,2)"/>
<path d="M0 0 C3.06456002 1.24252193 5.2204134 2.92592851 7.75 5.05078125 C8.63300781 5.78425781 9.51601563 6.51773437 10.42578125 7.2734375 C11.42158203 8.12228516 11.42158203 8.12228516 12.4375 8.98828125 C12.1075 10.63828125 11.7775 12.28828125 11.4375 13.98828125 C11.19773437 13.40691406 10.95796875 12.82554688 10.7109375 12.2265625 C9.18299977 9.54095416 7.48323598 8.08583041 5.0625 6.17578125 C4.29164062 5.55058594 3.52078125 4.92539063 2.7265625 4.28125 C0.59504633 2.81225268 0.59504633 2.81225268 -1.4921875 3.06640625 C-4.28666779 4.31074087 -6.75389741 5.87550575 -9.3125 7.55078125 C-10.29734375 8.19144531 -11.2821875 8.83210937 -12.296875 9.4921875 C-13.04453125 9.98589844 -13.7921875 10.47960938 -14.5625 10.98828125 C-14.5625 9.99828125 -14.5625 9.00828125 -14.5625 7.98828125 C-12.11328125 5.91015625 -12.11328125 5.91015625 -8.875 3.73828125 C-7.81925781 3.01125 -6.76351563 2.28421875 -5.67578125 1.53515625 C-2.5625 -0.01171875 -2.5625 -0.01171875 0 0 Z " fill="#0B0B0B" transform="translate(17.5625,1.01171875)"/>
<path d="M0 0 C1.65 0 3.3 0 5 0 C5 1.65 5 3.3 5 5 C3.35 5 1.7 5 0 5 C0 3.35 0 1.7 0 0 Z " fill="#090909" transform="translate(10,14)"/>
<path d="M0 0 C5.875 3.625 5.875 3.625 7 7 C6.01 8.485 6.01 8.485 5 10 C4.731875 9.21625 4.46375 8.4325 4.1875 7.625 C3.15185568 4.71885077 3.15185568 4.71885077 0 3 C0 2.01 0 1.02 0 0 Z " fill="#1D1E1D" transform="translate(23,5)"/>
</svg>
