<?xml version="1.0" encoding="UTF-8"?>
<svg version="1.1" xmlns="http://www.w3.org/2000/svg" width="32" height="32">
<path d="M0 0 C0.98484375 -0.00128906 1.9696875 -0.00257812 2.984375 -0.00390625 C4.02078125 -0.00003906 5.0571875 0.00382812 6.125 0.0078125 C7.67960937 0.00201172 7.67960937 0.00201172 9.265625 -0.00390625 C10.25046875 -0.00261719 11.2353125 -0.00132813 12.25 0 C13.16007812 0.00112793 14.07015625 0.00225586 15.0078125 0.00341797 C17.125 0.1328125 17.125 0.1328125 18.125 1.1328125 C18.22503289 3.26634424 18.25581048 5.40318792 18.2578125 7.5390625 C18.25910156 8.83972656 18.26039062 10.14039063 18.26171875 11.48046875 C18.25857666 12.50164795 18.25857666 12.50164795 18.25537109 13.54345703 C18.2500224 15.62409765 18.2553168 17.70452239 18.26171875 19.78515625 C18.26042969 21.08582031 18.25914063 22.38648438 18.2578125 23.7265625 C18.25668457 24.92990234 18.25555664 26.13324219 18.25439453 27.37304688 C18.125 30.1328125 18.125 30.1328125 17.125 31.1328125 C15.50242456 31.2319782 13.87560169 31.26361027 12.25 31.265625 C11.26515625 31.26691406 10.2803125 31.26820312 9.265625 31.26953125 C8.22921875 31.26566406 7.1928125 31.26179688 6.125 31.2578125 C4.57039062 31.26361328 4.57039062 31.26361328 2.984375 31.26953125 C1.99953125 31.26824219 1.0146875 31.26695313 0 31.265625 C-0.91007813 31.26449707 -1.82015625 31.26336914 -2.7578125 31.26220703 C-4.875 31.1328125 -4.875 31.1328125 -5.875 30.1328125 C-5.97503289 27.99928076 -6.00581048 25.86243708 -6.0078125 23.7265625 C-6.00910156 22.42589844 -6.01039062 21.12523437 -6.01171875 19.78515625 C-6.00962402 19.10437012 -6.0075293 18.42358398 -6.00537109 17.72216797 C-6.0000224 15.64152735 -6.0053168 13.56110261 -6.01171875 11.48046875 C-6.01042969 10.17980469 -6.00914063 8.87914062 -6.0078125 7.5390625 C-6.00668457 6.33572266 -6.00555664 5.13238281 -6.00439453 3.89257812 C-5.78863507 -0.70920487 -4.14431687 0.00513637 0 0 Z " fill="#8F8E8F" transform="translate(9.875,-0.1328125)"/>
<path d="M0 0 C0.98484375 -0.00128906 1.9696875 -0.00257812 2.984375 -0.00390625 C4.02078125 -0.00003906 5.0571875 0.00382812 6.125 0.0078125 C7.67960937 0.00201172 7.67960937 0.00201172 9.265625 -0.00390625 C10.25046875 -0.00261719 11.2353125 -0.00132813 12.25 0 C13.16007812 0.00112793 14.07015625 0.00225586 15.0078125 0.00341797 C17.125 0.1328125 17.125 0.1328125 18.125 1.1328125 C18.22503289 3.26634424 18.25581048 5.40318792 18.2578125 7.5390625 C18.25910156 8.83972656 18.26039062 10.14039063 18.26171875 11.48046875 C18.25857666 12.50164795 18.25857666 12.50164795 18.25537109 13.54345703 C18.2500224 15.62409765 18.2553168 17.70452239 18.26171875 19.78515625 C18.26042969 21.08582031 18.25914063 22.38648438 18.2578125 23.7265625 C18.25668457 24.92990234 18.25555664 26.13324219 18.25439453 27.37304688 C18.125 30.1328125 18.125 30.1328125 17.125 31.1328125 C15.50242456 31.2319782 13.87560169 31.26361027 12.25 31.265625 C11.26515625 31.26691406 10.2803125 31.26820312 9.265625 31.26953125 C8.22921875 31.26566406 7.1928125 31.26179688 6.125 31.2578125 C4.57039062 31.26361328 4.57039062 31.26361328 2.984375 31.26953125 C1.99953125 31.26824219 1.0146875 31.26695313 0 31.265625 C-0.91007813 31.26449707 -1.82015625 31.26336914 -2.7578125 31.26220703 C-4.875 31.1328125 -4.875 31.1328125 -5.875 30.1328125 C-5.97503289 27.99928076 -6.00581048 25.86243708 -6.0078125 23.7265625 C-6.00910156 22.42589844 -6.01039062 21.12523437 -6.01171875 19.78515625 C-6.00962402 19.10437012 -6.0075293 18.42358398 -6.00537109 17.72216797 C-6.0000224 15.64152735 -6.0053168 13.56110261 -6.01171875 11.48046875 C-6.01042969 10.17980469 -6.00914063 8.87914062 -6.0078125 7.5390625 C-6.00668457 6.33572266 -6.00555664 5.13238281 -6.00439453 3.89257812 C-5.78863507 -0.70920487 -4.14431687 0.00513637 0 0 Z M-3.875 2.1328125 C-3.875 11.3728125 -3.875 20.6128125 -3.875 30.1328125 C-1.235 30.1328125 1.405 30.1328125 4.125 30.1328125 C4.125 28.1528125 4.125 26.1728125 4.125 24.1328125 C5.445 24.1328125 6.765 24.1328125 8.125 24.1328125 C8.125 26.1128125 8.125 28.0928125 8.125 30.1328125 C10.765 30.1328125 13.405 30.1328125 16.125 30.1328125 C16.125 20.8928125 16.125 11.6528125 16.125 2.1328125 C9.525 2.1328125 2.925 2.1328125 -3.875 2.1328125 Z " fill="#010101" transform="translate(9.875,-0.1328125)"/>
<path d="M0 0 C0.33 0 0.66 0 1 0 C1 6.27 1 12.54 1 19 C-0.98 19 -2.96 19 -5 19 C-5 17.35 -5 15.7 -5 14 C-6.98 14 -8.96 14 -11 14 C-11 15.65 -11 17.3 -11 19 C-12.98 19 -14.96 19 -17 19 C-17 16.36 -17 13.72 -17 11 C-15.35 11 -13.7 11 -12 11 C-12 9.68 -12 8.36 -12 7 C-12.66 7 -13.32 7 -14 7 C-14 6.34 -14 5.68 -14 5 C-4.58997722 3.66742597 -4.58997722 3.66742597 0 5 C0 3.35 0 1.7 0 0 Z " fill="#FAF9FA" transform="translate(24,10)"/>
<path d="M0 0 C5.94 0 11.88 0 18 0 C18 2.31 18 4.62 18 7 C17.34 6.34 16.68 5.68 16 5 C13.93125966 4.3574765 13.93125966 4.3574765 12 4 C11.67 5.32 11.34 6.64 11 8 C11 6.68 11 5.36 11 4 C9.68 4 8.36 4 7 4 C6.67 5.32 6.34 6.64 6 8 C6 6.68 6 5.36 6 4 C4.68 4 3.36 4 2 4 C2.57344937 6.86724686 2.8614515 7.8614515 5 10 C4.01 10 3.02 10 2 10 C1.67 10.99 1.34 11.98 1 13 C-0.45781334 8.62655999 -0.0598032 4.60484643 0 0 Z " fill="#F2F1F2" transform="translate(7,2)"/>
<path d="M0 0 C3.3 0 6.6 0 10 0 C10.96070434 2.88211302 11.10581883 4.69850044 11.0625 7.6875 C11.05347656 8.49574219 11.04445313 9.30398437 11.03515625 10.13671875 C11.02355469 10.75160156 11.01195312 11.36648437 11 12 C9.02 12 7.04 12 5 12 C5 10.35 5 8.7 5 7 C3.35 7 1.7 7 0 7 C0.99 6.34 1.98 5.68 3 5 C2.01 4.67 1.02 4.34 0 4 C0 2.68 0 1.36 0 0 Z " fill="#BEBEBE" transform="translate(14,17)"/>
<path d="M0 0 C0.33 0 0.66 0 1 0 C1.33 4.29 1.66 8.58 2 13 C2.66 13 3.32 13 4 13 C4 13.66 4 14.32 4 15 C4.66 15 5.32 15 6 15 C6 16.32 6 17.64 6 19 C4.35 19 2.7 19 1 19 C1 21.64 1 24.28 1 27 C2.98 27 4.96 27 7 27 C7 25.35 7 23.7 7 22 C7.33 22 7.66 22 8 22 C8 23.98 8 25.96 8 28 C5.36 28 2.72 28 0 28 C0 18.76 0 9.52 0 0 Z " fill="#8F8E8F" transform="translate(6,2)"/>
<path d="M0 0 C1.32 0 2.64 0 4 0 C4.33 1.32 4.66 2.64 5 4 C6.32 4.33 7.64 4.66 9 5 C9 6.32 9 7.64 9 9 C6.03 9 3.06 9 0 9 C0.33 7.68 0.66 6.36 1 5 C0.61432869 2.31850007 0.61432869 2.31850007 0 0 Z " fill="#616161" transform="translate(9,6)"/>
<path d="M0 0 C1.98 0 3.96 0 6 0 C6 1.32 6 2.64 6 4 C6.99 4.33 7.98 4.66 9 5 C8.01 5 7.02 5 6 5 C5.67 6.32 5.34 7.64 5 9 C4.67 7.68 4.34 6.36 4 5 C2.68 5 1.36 5 0 5 C0 3.35 0 1.7 0 0 Z " fill="#9B9C9B" transform="translate(14,6)"/>
<path d="M0 0 C1.32 0.33 2.64 0.66 4 1 C5.09658936 4.28976808 4.79953138 5.71303767 4 9 C2.68 9 1.36 9 0 9 C0 6.03 0 3.06 0 0 Z " fill="#5C5C5C" transform="translate(20,6)"/>
<path d="M0 0 C0.33 0.99 0.66 1.98 1 3 C1.66 3 2.32 3 3 3 C3 3.66 3 4.32 3 5 C3.66 5 4.32 5 5 5 C5 6.32 5 7.64 5 9 C3.35 9 1.7 9 0 9 C0 6.03 0 3.06 0 0 Z " fill="#A09EA0" transform="translate(7,12)"/>
</svg>
